<svg xmlns="http://www.w3.org/2000/svg" version="1.1" xmlns:xlink="http://www.w3.org/1999/xlink" xmlns:svgjs="http://svgjs.com/svgjs" width="1440" height="560" preserveAspectRatio="none" viewBox="0 0 1440 560"><g mask="url(&quot;#SvgjsMask1000&quot;)" fill="none"><rect width="1440" height="560" x="0" y="0" fill="#0e2a47"></rect><path d="M0,492.287C93.167,480.652,178.313,449.587,263.342,409.768C360.817,364.121,471.518,331.941,532.213,243.053C596.87,148.363,638.407,22.222,602.272,-86.594C566.627,-193.933,428.953,-222.229,350.613,-303.808C277.94,-379.485,255.463,-502.005,160.504,-546.627C61.931,-592.947,-54.001,-570.211,-159.605,-543.563C-268.36,-516.119,-371.012,-469.194,-452.362,-391.974C-539.26,-309.487,-617.509,-209.822,-635.917,-91.431C-654.407,27.489,-612.163,147.795,-552.542,252.338C-496.241,351.06,-413.543,436.011,-309.3,481.28C-212.716,523.223,-104.486,505.335,0,492.287" fill="#0b2239"></path><path d="M1440 1066.341C1532.859 1058.241 1598.648 979.25 1676.261 927.629 1752.461 876.948 1837.637 840.213 1891.371 766.134 1952.7530000000002 681.511 2014.02 583.057 2001.482 479.271 1988.893 375.06399999999996 1906.444 292.973 1826.055 225.481 1753.615 164.66199999999998 1663.79 129.74599999999998 1570.058 117.06200000000001 1485.248 105.58499999999998 1405.68 140.56099999999998 1321.737 157.23399999999998 1228.098 175.83300000000003 1123.3319999999999 161.522 1048.4 220.67700000000002 968.8620000000001 283.469 906.02 382.254 908.376 483.56399999999996 910.689 583.021 1012.511 646.152 1060.3229999999999 733.393 1103.555 812.2760000000001 1108.0439999999999 911.988 1175.676 971.296 1247.528 1034.305 1344.796 1074.646 1440 1066.341" fill="#113255"></path></g><defs><mask id="SvgjsMask1000"><rect width="1440" height="560" fill="#ffffff"></rect></mask></defs></svg>